<svg xmlns="http://www.w3.org/2000/svg" viewBox="0 0 430 430" xmlns:v="https://vecta.io/nano"><g fill="#f3f5fd"><path d="M37 334l116 39.5v-278L36.5 56z"/><path d="M153 373.5L277 334V56L153 95.5z"/><path d="M394 374l-.5-278L277 56v278z"/><path d="M37 334l116 39.5v-278L36.5 56zm357 40l-.5-278L277 56v278z" opacity=".5"/></g><g fill="#f55f5f"><path d="M363.73 117.91v213.91l-86.74-28.87-124 38.98-86.22-29.03v-.01l86.22 29.03V127.55l124-39.48z"/><path d="M277 302.95l86.73 28.87V117.91L277 88.07z" opacity=".5"/><path d="M152.99 127.55v214.37l-86.22-29.03V98.34z"/><path d="M153,341.93c47.76-15.18,78.99-80.08,58.6-135.15C189.47,147,277,88.07,277,88.07l-124,39.48V341.93z"/><path d="M153 341.92l-86.23-29.03V98.34L153 127.55z" opacity=".5"/></g><g fill="#f3f5fd"><path d="M340.5 291.5h-.07c-1.93-.04-3.47-1.64-3.43-3.57l.12-11.07-.04-5.8c-.02-1.93 1.52-3.52 3.46-3.54h.04c1.91 0 3.48 1.54 3.5 3.46l.04 5.89-.12 11.22a3.5 3.5 0 0 1-3.5 3.41zm-172.52-18.01a3.49 3.49 0 0 1-3.39-2.65 3.49 3.49 0 0 1 2.55-4.24c9.51-2.37 18.06-7.93 25.41-16.52 1.26-1.47 3.47-1.64 4.93-.38s1.64 3.47.39 4.93c-8.32 9.72-18.08 16.04-29.03 18.77-.29.05-.58.09-.86.09zm-27.55-1.25c-.4 0-.81-.07-1.21-.22-10.23-3.79-19.13-11.26-26.46-22.23-1.07-1.61-.64-3.78.96-4.85 1.61-1.07 3.78-.64 4.85.96 6.49 9.71 14.25 16.29 23.07 19.55 1.81.67 2.74 2.68 2.07 4.5a3.48 3.48 0 0 1-3.28 2.29zm198.78-25.67c-1.79 0-3.31-1.36-3.48-3.18-1.13-12.16-2.99-22.86-5.52-31.81-.53-1.86.55-3.79 2.41-4.32s3.79.55 4.32 2.41c2.65 9.35 4.59 20.48 5.76 33.07.18 1.92-1.24 3.63-3.16 3.81a3.65 3.65 0 0 1-.33.02zm-129.53-14.56a3.54 3.54 0 0 1-1.41-.3c-1.77-.78-2.57-2.85-1.79-4.61 2.05-4.65 3.96-9.75 5.69-15.16 1.82-5.7 3.88-10.99 6.14-15.72.83-1.75 2.92-2.49 4.66-1.66 1.75.83 2.49 2.92 1.66 4.66-2.12 4.45-4.06 9.44-5.79 14.84-1.8 5.65-3.8 10.98-5.95 15.85a3.51 3.51 0 0 1-3.21 2.1zm-106.02-5.83a3.5 3.5 0 0 1-3.31-2.37c-3.25-9.5-5.95-20.44-8.03-32.53-.33-1.91.95-3.71 2.86-4.04a3.5 3.5 0 0 1 4.04 2.86c2.01 11.72 4.62 22.3 7.75 31.44a3.49 3.49 0 0 1-2.18 4.44 3.17 3.17 0 0 1-1.13.2zm218.32-37.34c-1.08 0-2.15-.5-2.83-1.44-6.16-8.48-14.22-14.15-24.63-17.34-1.85-.57-2.89-2.52-2.32-4.37a3.5 3.5 0 0 1 4.37-2.32c11.92 3.65 21.15 10.17 28.24 19.91 1.14 1.56.79 3.75-.77 4.89a3.47 3.47 0 0 1-2.06.67zm-84.21-10.12c-.98 0-1.95-.41-2.64-1.21a3.5 3.5 0 0 1 .35-4.94c8.85-7.68 19.68-11.95 32.21-12.68 1.91-.11 3.59 1.36 3.7 3.29s-1.36 3.59-3.29 3.7c-11.1.65-20.27 4.24-28.03 10.98-.67.58-1.49.86-2.3.86zM92.24 166.43a3.5 3.5 0 0 1-3.48-3.19c-.91-10.32-1.5-21.47-1.76-33.17a3.51 3.51 0 0 1 3.42-3.58 3.49 3.49 0 0 1 3.58 3.42c.25 11.54.84 22.54 1.74 32.7a3.49 3.49 0 0 1-3.18 3.79c-.11.03-.21.03-.32.03z"/><circle cx="90.8" cy="132.65" r="13.5"/><circle cx="340.62" cy="293.3" r="13.5"/></g><g fill="#4c4956"><path d="M153 377c-.38 0-.76-.06-1.13-.19l-116-39.5c-1.42-.48-2.37-1.81-2.37-3.31L33 56a3.5 3.5 0 0 1 1.46-2.85c.92-.66 2.1-.83 3.17-.47l116.5 39.5c1.42.48 2.38 1.81 2.38 3.31v278A3.5 3.5 0 0 1 153 377zM40.5 331.49l109 37.12V98.01L40.01 60.89l.49 270.6z"/><path d="M153 377a3.55 3.55 0 0 1-2.07-.67c-.9-.66-1.43-1.71-1.43-2.83v-278a3.5 3.5 0 0 1 2.44-3.33l124-39.5a3.5 3.5 0 0 1 3.13.51c.9.66 1.43 1.71 1.43 2.83v278a3.5 3.5 0 0 1-2.44 3.33l-124 39.5a3.45 3.45 0 0 1-1.06.16zm3.5-278.94v270.65l117-37.27V60.79l-117 37.27z"/><path d="M394 377.5c-.38 0-.76-.06-1.13-.19l-117-40c-1.42-.48-2.37-1.82-2.37-3.31V56a3.51 3.51 0 0 1 1.47-2.85 3.48 3.48 0 0 1 3.17-.46l116.5 40a3.49 3.49 0 0 1 2.36 3.3l.5 278a3.5 3.5 0 0 1-1.46 2.85 3.45 3.45 0 0 1-2.04.66zm-113.5-46l109.99 37.6L390 98.5 280.5 60.9v270.6z"/></g></svg>