<svg xmlns="http://www.w3.org/2000/svg" viewBox="0 0 430 430" xmlns:v="https://vecta.io/nano"><g fill="#f55f5f"><path d="M402.32 83.08H66.3v224.07c0 .55.45 1 1 1h335.02c.55 0 1-.45 1-1V84.08c0-.55-.45-1-1-1z"/><path d="M66.3 83.08h337.02v225.07H66.3z" opacity=".6"/></g><path d="M401.32 309.65H68.3c-1.93 0-3.5-1.57-3.5-3.5V85.08c0-1.93 1.57-3.5 3.5-3.5h333.02c1.93 0 3.5 1.57 3.5 3.5v221.07c0 1.93-1.57 3.5-3.5 3.5zm-329.52-7h326.02V88.58H71.8v214.07z" fill="#4c4956"/><path d="M354.17 129.6v210.82H35.83V129.58z" fill="#f3f5fd"/><path d="M354.17 129.6L221.01 263.21c-5.9 5.9-13.29 9.39-20.95 10.47-11.11 1.57-22.79-1.92-31.33-10.47L35.83 129.58h20.13l298.21.02z" fill="#f55f5f"/><g fill="#4c4956"><path d="M194.87 277.55c-10.82 0-20.98-4.22-28.62-11.87L35.59 134.77c-1.37-1.37-1.36-3.58 0-4.95 1.37-1.36 3.58-1.36 4.95 0L171.2 260.74a33.2 33.2 0 0 0 23.66 9.81 33.2 33.2 0 0 0 23.66-9.81l130.65-130.88c1.36-1.37 3.58-1.37 4.95 0s1.37 3.58 0 4.95L223.49 265.69c-7.64 7.65-17.81 11.86-28.62 11.86z"/><path d="M354.17 343.92H35.83c-1.93 0-3.5-1.57-3.5-3.5V129.58c0-.93.37-1.82 1.03-2.47s1.55-1.03 2.47-1.03h0l318.34.03c1.93 0 3.5 1.57 3.5 3.5v210.82c0 1.92-1.57 3.49-3.5 3.49zm-314.84-7h311.34V133.11l-311.34-.03v203.84z"/><path d="M35.83 323.97a3.48 3.48 0 0 1-2.63-1.19 3.5 3.5 0 0 1 .32-4.94l84.03-73.85c6-5.2 12.65-9.79 19.8-13.64a3.5 3.5 0 0 1 4.74 1.42 3.5 3.5 0 0 1-1.42 4.74c-6.7 3.61-12.93 7.9-18.52 12.75l-84.01 73.83a3.48 3.48 0 0 1-2.31.88zm318.34-1.55a3.52 3.52 0 0 1-2.29-.85l-83.49-72.15a102.21 102.21 0 0 0-19.09-13.11c-1.71-.91-2.35-3.03-1.45-4.73.91-1.71 3.03-2.35 4.73-1.45 7.35 3.91 14.21 8.62 20.39 14l83.48 72.15a3.51 3.51 0 0 1 .36 4.94c-.68.79-1.66 1.2-2.64 1.2z"/></g><path d="M200.06 273.68c-11.11 1.57-22.79-1.92-31.33-10.47L35.83 129.58h20.13l144.1 144.1z" fill="#f55f5f" opacity=".5"/><path d="M146.42 240.78L35.83 333.32v-12.86l84.03-73.84c5.91-5.13 12.34-9.52 19.15-13.19l7.41 7.35zm207.75 79.74v12.81l-110.61-92.55 7.42-7.35c6.81 3.67 13.24 8.06 19.15 13.19l84.02 73.84.02.06z" opacity=".5" fill="#f3f5fd"/></svg>