	<svg xmlns="http://www.w3.org/2000/svg" xmlns:xlink="http://www.w3.org/1999/xlink" role="img"  viewBox="0 0 5373.1 1337.1">
				<g>
		
					<path d="M1269.6,526.3l44.1-252.3h121l-115.4,656.5h-121l7.5-45c-40.7,38.8-93.2,58.2-157.6,58.2c-70,0-122.6-25.9-157.6-77.8
						c-34.4-51.3-45-111.6-31.9-181c12.5-66.9,42.5-122.9,90-167.9c48.1-45.6,106.3-68.5,174.5-68.5
						C1190.9,448.5,1239.6,474.5,1269.6,526.3z M1086.7,828.4c38.1,0,71.4-12.2,99.9-36.6c28.4-24.4,45.8-56,52.1-94.7
						c7.5-40,1.1-72.2-19.2-96.6c-20.3-24.4-49.6-36.6-87.7-36.6c-37.5,0-70.5,11.9-98.9,35.6c-28.5,23.8-46.1,55.7-53,95.7
						c-6.9,39.4-0.2,71.4,20.2,96.1C1020.3,816,1049.2,828.4,1086.7,828.4z"/>
					<path d="M1920.5,696.1c-0.6,12.5-5,29.1-13.1,49.7h-354.5c2.5,29.4,13.7,51.4,33.8,66.1c20,14.7,46.3,22,78.8,22
						c46.9,0,85.3-15.9,115.4-47.8l85.3,68.5c-52.5,59.4-122.6,89.1-210.1,89.1c-78.2,0-137.3-24.7-177.3-74.1
						c-40-49.4-54.1-110.4-42.2-182.9c10-68.1,41.9-124.7,95.7-169.8c53.1-45.6,114.4-68.5,183.8-68.5c68.8,0,123.5,24.1,164.1,72.2
						C1920.2,568.2,1933.7,626.7,1920.5,696.1z M1569.8,651.1H1808c-0.6-30.6-9.8-53.9-27.7-69.9c-17.8-15.9-41.7-23.9-71.8-23.9
						C1643.5,557.3,1597.3,588.6,1569.8,651.1z"/>
					<path d="M2883.9,461.6l-13.1,75c33.8-57.5,86.3-85.7,157.6-84.4l-23.4,135.1c-34.4-5.6-67.7,1.1-99.9,20.2
						c-32.2,19.1-53.3,50.5-63.3,94.3l-40.3,228.8h-121l82.5-469H2883.9z"/>
					<path d="M3416.6,524.5l11.3-62.8h121l-82.5,469h-121l7.5-43.1c-40.7,37.5-92.5,56.3-155.7,56.3c-70,0-122.6-25.9-157.6-77.8
						c-34.4-51.3-45-111.6-31.9-181c12.5-66.9,42.5-122.9,90-167.9c48.1-45.6,106.3-68.5,174.5-68.5
						C3338.5,448.5,3386.6,473.8,3416.6,524.5z M3234.7,828.4c36.3,0,68.5-11.6,96.6-34.7c28.1-23.1,46.3-53.1,54.4-90l1.9-15
						c5-37.5-2.8-67.7-23.4-90.5c-20.6-22.8-49.1-34.2-85.4-34.2c-37.5,0-70.2,11.9-98,35.6c-27.8,23.8-45.2,55.7-52.1,95.7
						c-6.9,39.4-0.3,71.4,19.7,96.1C3168.4,816,3197.2,828.4,3234.7,828.4z"/>
					<path d="M3798.4,943.7c-72.5,0-129.4-24.7-170.7-74.1c-40.7-50.6-55-111.6-43.1-182.9c10.6-68.8,42.2-125.7,94.7-170.7
						c53.8-45,115.7-67.5,185.7-67.5c47.5,0,88.6,10.9,123.3,32.8c34.7,21.9,59.6,51.6,74.6,89.1l-109.7,58.2
						c-16.9-40.6-49.7-61-98.5-61c-35.6,0-68.2,11.9-97.5,35.6c-27.5,23.1-44.7,53.2-51.6,90c-6.3,37.5,0.3,68.6,19.7,93.3
						c19.4,24.7,47.2,37,83.5,37c48.8,0,87.5-20.9,116.3-62.8l97.5,62.8c-23.8,38.8-55.3,68.5-94.7,89.1
						C3888.4,933.4,3845.3,943.7,3798.4,943.7z"/>
					<path d="M4411.8,461.6h143.5l-226,231.7l149.1,237.3H4347l-134.1-220.4l-38.5,220.4h-121l115.4-656.5h121l-67.5,385.5L4411.8,461.6
						z"/>
					<path d="M4996.1,696.1c-0.6,12.5-5,29.1-13.1,49.7h-354.5c2.5,29.4,13.7,51.4,33.8,66.1c20,14.7,46.3,22,78.8,22
						c46.9,0,85.3-15.9,115.4-47.8l85.3,68.5c-52.5,59.4-122.6,89.1-210.1,89.1c-78.2,0-137.3-24.7-177.3-74.1
						c-40-49.4-54.1-110.4-42.2-182.9c10-68.1,41.9-124.7,95.7-169.8c53.1-45.6,114.4-68.5,183.8-68.5c68.8,0,123.5,24.1,164.1,72.2
						C4995.8,568.2,5009.2,626.7,4996.1,696.1z M4645.3,651.1h238.2c-0.6-30.6-9.8-53.9-27.7-69.9c-17.8-15.9-41.7-23.9-71.7-23.9
						C4719.1,557.3,4672.8,588.6,4645.3,651.1z"/>
					<path d="M5228.7,461.6l-13.1,75c33.8-57.5,86.3-85.7,157.6-84.4l-23.4,135.1c-34.4-5.6-67.7,1.1-99.9,20.2
						c-32.2,19.1-53.3,50.5-63.3,94.3l-40.3,228.8h-121l82.5-469H5228.7z"/>
					<g>
						<path d="M2534.6,816.2c-13.5-5.6-18.3-20-14.5-43.1l9.9-55.4c-23.1,32.5-66.3,93.6-118.1,167.1c5.3,8.2,11.8,15.4,19.6,21.4
							c32.8,25.6,88.6,33.8,167.4,24.4l18.8-109.7C2575.7,823.4,2548,821.8,2534.6,816.2z"/>
						<path d="M2574.4,461.6l23.4-131.3l-127.6,36.6l-16.9,94.7h-161c-71.3-1.2-118.7,17.5-152.4,75l13.1-75h-121l-76.7,435.7
							c42-15.6,85.2-31.4,129.3-47.3l26.1-148.3c10-43.8,31.1-75.2,63.3-94.3c29.6-17.5,49.5-29.1,87.2-29.6l0,0.1h172.4l-28.6,160.8
							c42.7-14.2,85.6-28.2,128.4-41.9l21.2-118.9h105l21.6-116.3H2574.4z"/>
					</g>
					<g>
						<path d="M1783.8,1136.6l686.3-387c-452.8,143.7-911.3,337.3-911.3,337.3C1783.7,1136.9,1783.8,1136.6,1783.8,1136.6
							C1783.8,1136.6,1783.8,1136.6,1783.8,1136.6L1783.8,1136.6z"/>
						<path d="M2470.1,749.6c0,0-4.7,3.2-595.9,423.8c-38.5,128.1-46.9,157.1-48.8,163.7l122.4-119.9
							c140.6,83.9,139.9,85.8,139.9,85.8C2131.4,1226.2,2470.1,749.6,2470.1,749.6C2470.1,749.6,2470.1,749.6,2470.1,749.6z"/>
					</g>
				</g>
			</svg>