<svg xmlns="http://www.w3.org/2000/svg" viewBox="0 0 5373.1 1337.1" xmlns:v="https://vecta.io/nano" fill="#ffffff"><path d="M219.2 943.7c-77.5 0-136-25.9-175.4-77.8C4.4 812.7-8.4 751.1 5.3 681.1c13.1-66.3 45.6-121.6 97.5-166s113.8-66.6 185.7-66.6c73.2 0 128.8 26.3 166.9 78.8 39.4 51.3 52.8 111.6 40.3 181-11.3 66.3-43.5 122.3-96.6 167.9-52.4 45-112.4 67.5-179.9 67.5zm8.4-118.2c35 0 66.9-11.9 95.7-35.6 28.1-22.5 45.6-54.1 52.5-94.7 7.5-38.1 1.4-69.1-18.3-92.9s-47.7-35.6-83.9-35.6c-35.6 0-67.2 11.9-94.7 35.6-27.5 23.8-45 55-52.5 93.8-6.9 38.8-.6 70 18.8 93.8 19.3 23.8 46.8 35.6 82.4 35.6zM735 461.6l-13.1 75c33.8-57.5 86.3-85.7 157.6-84.4L856 587.3c-34.4-5.6-67.7 1.1-99.9 20.2s-53.3 50.5-63.3 94.3l-40.3 228.8h-121l82.5-469h121zm534.6 64.7l44.1-252.3h121l-115.4 656.5h-121l7.5-45c-40.7 38.8-93.2 58.2-157.6 58.2-70 0-122.6-25.9-157.6-77.8-34.4-51.3-45-111.6-31.9-181 12.5-66.9 42.5-122.9 90-167.9 48.1-45.6 106.3-68.5 174.5-68.5 67.7 0 116.4 26 146.4 77.8zm-182.9 302.1c38.1 0 71.4-12.2 99.9-36.6 28.4-24.4 45.8-56 52.1-94.7 7.5-40 1.1-72.2-19.2-96.6s-49.6-36.6-87.7-36.6c-37.5 0-70.5 11.9-98.9 35.6-28.5 23.8-46.1 55.7-53 95.7-6.9 39.4-.2 71.4 20.2 96.1 20.2 24.7 49.1 37.1 86.6 37.1zm833.8-132.3c-.6 12.5-5 29.1-13.1 49.7h-354.5c2.5 29.4 13.7 51.4 33.8 66.1 20 14.7 46.3 22 78.8 22 46.9 0 85.3-15.9 115.4-47.8l85.3 68.5c-52.5 59.4-122.6 89.1-210.1 89.1-78.2 0-137.3-24.7-177.3-74.1s-54.1-110.4-42.2-182.9c10-68.1 41.9-124.7 95.7-169.8 53.1-45.6 114.4-68.5 183.8-68.5 68.8 0 123.5 24.1 164.1 72.2 40 47.6 53.5 106.1 40.3 175.5zm-350.7-45H1808c-.6-30.6-9.8-53.9-27.7-69.9-17.8-15.9-41.7-23.9-71.8-23.9-65 0-111.2 31.3-138.7 93.8zm1314.1-189.5l-13.1 75c33.8-57.5 86.3-85.7 157.6-84.4L3005 587.3c-34.4-5.6-67.7 1.1-99.9 20.2s-53.3 50.5-63.3 94.3l-40.3 228.8h-121l82.5-469h120.9zm532.7 62.9l11.3-62.8h121l-82.5 469h-121l7.5-43.1c-40.7 37.5-92.5 56.3-155.7 56.3-70 0-122.6-25.9-157.6-77.8-34.4-51.3-45-111.6-31.9-181 12.5-66.9 42.5-122.9 90-167.9 48.1-45.6 106.3-68.5 174.5-68.5 66.3-.2 114.4 25.1 144.4 75.8zm-181.9 303.9c36.3 0 68.5-11.6 96.6-34.7s46.3-53.1 54.4-90l1.9-15c5-37.5-2.8-67.7-23.4-90.5s-49.1-34.2-85.4-34.2c-37.5 0-70.2 11.9-98 35.6-27.8 23.8-45.2 55.7-52.1 95.7-6.9 39.4-.3 71.4 19.7 96.1 20 24.6 48.8 37 86.3 37zm563.7 115.3c-72.5 0-129.4-24.7-170.7-74.1-40.7-50.6-55-111.6-43.1-182.9 10.6-68.8 42.2-125.7 94.7-170.7 53.8-45 115.7-67.5 185.7-67.5 47.5 0 88.6 10.9 123.3 32.8s59.6 51.6 74.6 89.1l-109.7 58.2c-16.9-40.6-49.7-61-98.5-61-35.6 0-68.2 11.9-97.5 35.6-27.5 23.1-44.7 53.2-51.6 90-6.3 37.5.3 68.6 19.7 93.3s47.2 37 83.5 37c48.8 0 87.5-20.9 116.3-62.8l97.5 62.8c-23.8 38.8-55.3 68.5-94.7 89.1-39.5 20.8-82.6 31.1-129.5 31.1zm613.4-482.1h143.5l-226 231.7 149.1 237.3H4347l-134.1-220.4-38.5 220.4h-121l115.4-656.5h121l-67.5 385.5 189.5-198zm584.3 234.5c-.6 12.5-5 29.1-13.1 49.7h-354.5c2.5 29.4 13.7 51.4 33.8 66.1 20 14.7 46.3 22 78.8 22 46.9 0 85.3-15.9 115.4-47.8l85.3 68.5c-52.5 59.4-122.6 89.1-210.1 89.1-78.2 0-137.3-24.7-177.3-74.1s-54.1-110.4-42.2-182.9c10-68.1 41.9-124.7 95.7-169.8 53.1-45.6 114.4-68.5 183.8-68.5 68.8 0 123.5 24.1 164.1 72.2 40 47.6 53.4 106.1 40.3 175.5zm-350.8-45h238.2c-.6-30.6-9.8-53.9-27.7-69.9-17.8-15.9-41.7-23.9-71.7-23.9-65 0-111.3 31.3-138.8 93.8zm583.4-189.5l-13.1 75c33.8-57.5 86.3-85.7 157.6-84.4l-23.4 135.1c-34.4-5.6-67.7 1.1-99.9 20.2s-53.3 50.5-63.3 94.3l-40.3 228.8h-121l82.5-469h120.9zM2534.6 816.2c-13.5-5.6-18.3-20-14.5-43.1l9.9-55.4-118.1 167.1c5.3 8.2 11.8 15.4 19.6 21.4 32.8 25.6 88.6 33.8 167.4 24.4l18.8-109.7c-42 2.5-69.7.9-83.1-4.7zm39.8-354.6l23.4-131.3-127.6 36.6-16.9 94.7h-161c-71.3-1.2-118.7 17.5-152.4 75l13.1-75h-121l-76.7 435.7 129.3-47.3 26.1-148.3c10-43.8 31.1-75.2 63.3-94.3 29.6-17.5 49.5-29.1 87.2-29.6v.1h172.4L2405 738.7l128.4-41.9 21.2-118.9h105l21.6-116.3h-106.8zm-790.6 675l686.3-387c-452.8 143.7-911.3 337.3-911.3 337.3l225 49.7h0z"/><path d="M2470.1 749.6s-4.7 3.2-595.9 423.8l-48.8 163.7 122.4-119.9 139.9 85.8c43.7-76.8 382.4-553.4 382.4-553.4z"/></svg>