<svg xmlns="http://www.w3.org/2000/svg" xmlns:xlink="http://www.w3.org/1999/xlink" viewBox="0 0 430 430" xmlns:v="https://vecta.io/nano"><g fill="#f3f5fd"><path d="M377.4 213.9c0 63.3-36.7 117.9-89.9 144l24.7-35.2 8.7-32.8c-38.7-14.7-69.1-38.5-69.1-38.5l-30.1 27.4-1.4 12c-.8 7.2 1.8 14.3 7.1 19.3 6.6 6.2 15.2 14.8 17.6 19.9 5 10.3 7.5 26.9 8.8 39.9-11.7 2.7-23.9 4.2-36.5 4.2-88.4 0-160.1-71.7-160.1-160.1 0-45.1 18.7-85.9 48.7-115l27.8.4c9-4.2 13-1.3 19.5 7.2 12.1 16-12.4 41.5-12.4 41.5l12.1 68.6 51.5 28.1 19.6-16.9-14.2-29.2-20.2-14.7c-3.4-18.4 22.7-22.3 22.7-22.3l26.9 20.1 13.8-27.3 44.5-1.7s6.4-17.6 5.2-26.9c-.4-3.3-9.7-15.9-9.7-15.9l-27.1 2.3-20.2-15 36.5-23.4-3.9-7.9c58.1 23.8 99.1 81.1 99.1 147.9z"/><path d="M226.4 373.7l-9.1.3c-88.4 0-160.1-71.7-160.1-160.1 0-45.1 18.7-85.9 48.7-115l18.1.3c-30 29-48.6 69.7-48.6 114.7 0 85.3 66.8 155.1 151 159.8z" opacity=".5" enable-background="new"/></g><g fill="#f55f5f"><path d="M297.5 152.6l-44.5 1.7-13.8 27.3-26.9-20.1s-26.1 4-22.7 22.3l20.2 14.7 14.2 29.2-19.6 16.9-51.5-28.1-12.2-68.5s24.5-25.5 12.4-41.5c-6.5-8.6-10.5-11.4-19.5-7.2l-27.8-.4c28.8-28 68.1-45.1 111.4-45.1 21.6 0 42.2 4.3 61.1 12.1l3.9 7.9-36.5 23.4 20.1 15 27.1-2.3s9.3 12.6 9.7 15.9c1.2 9.2-5.1 26.8-5.1 26.8zm23.3 137.2l-8.7 32.8-24.7 35.2c-10.6 5.2-21.9 9.2-33.7 12-1.3-13-3.9-29.6-8.8-39.9-2.4-5.1-11-13.7-17.6-19.9-5.3-5-7.9-12.1-7.1-19.3l1.4-12 30.1-27.4c0 .1 30.4 23.8 69.1 38.5z"/><path d="M216.4 234.2l-12.1 10.5-51.5-28.1-12.1-68.6s24.5-25.5 12.4-41.5c-6.5-8.6-10.5-11.4-19.5-7.2l-27.8-.4c4.9-4.8 10.1-9.2 15.6-13.3l28.9.4c9.5-4.4 13.6-1.4 20.5 7.6 12.7 16.8-13 43.6-13 43.6l12.6 71.9 46 25.1zM275.5 363c-7 2.8-14.3 5-21.8 6.8-1.3-13-3.9-29.6-8.8-39.9-2.4-5.1-11-13.7-17.6-19.9-5.3-5-7.9-12.1-7.1-19.3l1.4-12 30.1-27.4s3.3 2.6 9 6.5l-18 16.4-1.5 12.6c-.9 7.5 1.9 15 7.4 20.2 7 6.5 15.9 15.6 18.5 20.9 4.3 9.1 6.9 22.8 8.4 35.1z" opacity=".5" enable-background="new"/></g><path d="M204.3 248.8a3.53 3.53 0 0 1-1.7-.4l-51.5-28.1c-.9-.5-1.6-1.4-1.8-2.5l-12.1-68.6c-.2-1.1.1-2.2.9-3 .2-.2 22.3-23.5 12.1-37-6.3-8.3-8.6-9.3-15.2-6.2-.5.2-1 .3-1.5.3l-27.8-.4c-1.4 0-2.7-.9-3.2-2.2s-.2-2.8.8-3.8c30.7-29.8 71.1-46.1 113.9-46.1 21.6 0 42.6 4.2 62.4 12.3.8.3 1.4.9 1.8 1.7l3.9 7.9c.8 1.6.2 3.5-1.2 4.5l-32.2 20.7 15 11.2 25.8-2.2c1.2-.1 2.4.4 3.1 1.4 3.7 5 9.9 13.9 10.4 17.6 1.2 10-5.1 27.7-5.4 28.5-.5 1.3-1.7 2.2-3.2 2.3l-42.5 1.6-12.9 25.5c-.5.9-1.3 1.6-2.3 1.8s-2.1 0-2.9-.6l-25.7-19.2c-3.5.8-12.5 3.2-16.6 9-1.6 2.2-2.2 4.8-2 7.6l19 13.8c.5.3.8.8 1.1 1.3l14.2 29.2c.7 1.4.3 3.1-.9 4.2l-19.6 16.9c-.6.7-1.4 1-2.2 1zm-48.4-33.9l47.9 26.1 15.7-13.6-12.6-26-19.5-14.2c-.7-.5-1.2-1.3-1.4-2.2-1-5.3 0-10.1 2.9-14.3 6.9-9.6 22-12.1 22.7-12.2.9-.1 1.9.1 2.6.7l23.6 17.6 11.9-23.6c.6-1.1 1.7-1.9 3-1.9l42.1-1.6c1.9-5.9 5-17 4.3-23.1-.4-1.5-4.2-7.5-7.9-12.7L266 116c-.9.1-1.7-.2-2.4-.7l-20.1-15c-.9-.7-1.4-1.8-1.4-2.9s.6-2.2 1.6-2.8L277.6 73l-1.9-3.9c-18.6-7.5-38.3-11.3-58.5-11.3-38 0-74.1 13.5-102.6 38.3l18.2.3c11.4-5 17 .7 23 8.6 12.2 16.1-6.3 38.9-11.4 44.7l11.5 65.2zm141.6-61.7h0 0zm-43.8 220.7c-.7 0-1.4-.2-2-.6-.8-.6-1.4-1.5-1.4-2.5-1.8-17.5-4.7-30.9-8.5-38.7-1-2.1-4.5-7.2-16.9-18.9-6-5.7-9.1-14-8.1-22.2l1.4-12c.1-.8.5-1.6 1.1-2.2l30.1-27.4c1.3-1.1 3.2-1.2 4.5-.2.3.2 30.5 23.6 68.2 38 1.7.6 2.6 2.4 2.1 4.2l-8.7 32.8c-.1.4-.3.8-.5 1.1l-24.7 35.2c-.3.5-.8.9-1.3 1.1a158.44 158.44 0 0 1-34.4 12.2c-.4 0-.6.1-.9.1zM224.9 281l-1.2 10.7c-.7 6 1.5 12.2 6 16.3 10.1 9.5 16.2 16.5 18.4 20.9 3.9 8.1 6.8 20.5 8.7 37.1 9.7-2.5 19.2-6 28.3-10.4l23.9-33.9 7.7-29.2c-31.7-12.5-57.1-30.4-64.8-36l-27 24.5z" fill="#4c4956"/><path d="M320.7 218.4V289c0 .4 0 .9-.1 1.3-.6 2.6-2.9 4.6-5.8 4.6h-25.7l-20 20-19.9-20h-26.1c-1.1 0-2.2-.3-3.1-.9-1.7-1-2.8-2.9-2.8-5v-70.6c0-.9.2-1.8.6-2.5.9-2 3-3.4 5.3-3.4h91.7c3.3 0 5.9 2.6 5.9 5.9zM208.6 94v70.3c0 3.2-2.6 5.9-5.9 5.9h-25.6L157.3 190l-9-9h0l-2.3-2.3-8.6-8.6h-25.9c-3.2 0-5.9-2.6-5.9-5.9V99.7l.2-.2c4.1-4 8.5-7.8 13.1-11.4h83.9c3.2 0 5.8 2.6 5.8 5.9z" fill="#ebe6ef"/><path d="M269.1 318.4c-.9 0-1.8-.3-2.5-1l-18.9-18.9h-24.6a9.39 9.39 0 0 1-9.4-9.4v-70.6a9.39 9.39 0 0 1 9.4-9.4h91.7a9.39 9.39 0 0 1 9.4 9.4V289a9.39 9.39 0 0 1-9.4 9.4h-24.3l-18.9 18.9c-.7.7-1.6 1.1-2.5 1.1zm-46-102.4c-1.3 0-2.4 1.1-2.4 2.4V289c0 1.3 1.1 2.4 2.4 2.4h26.1c.9 0 1.8.4 2.5 1l17.5 17.5 17.5-17.5c.7-.7 1.5-1 2.5-1h25.7c1.3 0 2.4-1.1 2.4-2.4v-70.6c0-1.3-1.1-2.4-2.4-2.4h-91.8zm-65.8-22.5c-.9 0-1.8-.3-2.5-1l-9-9-.2-.2-9.7-9.7h-24.5a9.39 9.39 0 0 1-9.4-9.4V98.1c0-1 .4-2 1.2-2.7l11.8-10c.6-.5 1.4-.8 2.3-.8h85.4a9.39 9.39 0 0 1 9.4 9.4v70.3a9.39 9.39 0 0 1-9.4 9.4h-24.2l-18.9 18.8c-.5.6-1.4 1-2.3 1zm-6.4-14.8l6.4 6.3 17.4-17.4c.7-.7 1.6-1 2.5-1h25.6c1.3 0 2.4-1.1 2.4-2.4V94c0-1.3-1.1-2.4-2.4-2.4h-84.1l-9.6 8.1v64.5c0 1.3 1.1 2.4 2.4 2.4h25.9c.9 0 1.8.4 2.5 1l10.9 10.9c0 .1.1.1.1.2z" fill="#4c4956"/><g fill="#f55f5f"><path d="M145.2 129.7h23.9v20.9h-23.9z"/><path d="M179.9 119.4v10.3h-45.6v-10.3l22.8-12.8zM256.5 255h23.9v21h-23.9z"/><path d="M291.2 244.8V255h-45.6v-10.2l22.8-12.9z"/></g><g fill="#4c4956"><path d="M217.2 377.5c-90.2 0-163.6-73.4-163.6-163.6 0-44.7 17.7-86.4 49.8-117.5 30.7-29.7 71.1-46.1 113.9-46.1 21.6 0 42.6 4.2 62.4 12.3 61.5 25.4 101.2 84.8 101.2 151.3 0 31.2-8.8 61.6-25.5 87.8-16.3 25.5-39.2 46-66.4 59.3a158.44 158.44 0 0 1-34.4 12.2c-12.2 2.8-24.8 4.3-37.4 4.3zm0-320.3c-40.9 0-79.6 15.7-109 44.2-30.7 29.8-47.6 69.7-47.6 112.5 0 86.4 70.3 156.6 156.6 156.6 12.1 0 24.1-1.4 35.7-4.1 11.4-2.6 22.4-6.6 33-11.7 54.3-26.5 88-80.5 88-140.8 0-63.7-38-120.5-96.9-144.8-19-7.9-39.1-11.9-59.8-11.9zm-36.9 96.9h-46.4c-1.9 0-3.5-1.6-3.5-3.5s1.6-3.5 3.5-3.5h46.4c1.9 0 3.5 1.6 3.5 3.5s-1.5 3.5-3.5 3.5z"/><use xlink:href="#B"/><use xlink:href="#B" x="23.9"/><path d="M179.9 133.2h-45.5c-1.9 0-3.5-1.6-3.5-3.5v-10.2c0-1.3.7-2.4 1.8-3.1l22.8-12.9c1.1-.6 2.4-.6 3.4 0l22.8 12.9c1.1.6 1.8 1.8 1.8 3.1v10.2c-.1 1.9-1.7 3.5-3.6 3.5zm-42-7h38.5v-4.7l-19.3-10.9-19.3 10.9v4.7zm154.4 153.5h-46.6c-1.9 0-3.5-1.6-3.5-3.5s1.6-3.5 3.5-3.5h46.6c1.9 0 3.5 1.6 3.5 3.5s-1.6 3.5-3.5 3.5z"/><use xlink:href="#C"/><use xlink:href="#C" x="24"/><path d="M291.8 258.6H246c-1.9 0-3.5-1.6-3.5-3.5v-10.3c0-1.3.7-2.4 1.8-3.1l22.9-12.9c1.1-.6 2.4-.6 3.4 0l22.9 12.9c1.1.6 1.8 1.8 1.8 3.1v10.3c0 2-1.5 3.5-3.5 3.5zm-42.2-7h38.8v-4.8L269 235.9l-19.4 10.9v4.8z"/></g><defs ><path id="B" d="M145.2 154.1c-1.9 0-3.5-1.6-3.5-3.5v-20.9c0-1.9 1.6-3.5 3.5-3.5s3.5 1.6 3.5 3.5v20.9c0 2-1.6 3.5-3.5 3.5z"/><path id="C" d="M257 279.7c-1.9 0-3.5-1.6-3.5-3.5v-21c0-1.9 1.6-3.5 3.5-3.5s3.5 1.6 3.5 3.5v21c0 1.9-1.6 3.5-3.5 3.5z"/></defs></svg>