<svg xmlns="http://www.w3.org/2000/svg" width="1000" height="1187.198"  xmlns:v="https://vecta.io/nano"><path d="M979.042 925.188c-17.954 41.477-39.206 79.657-63.828 114.76-33.563 47.853-61.044 80.976-82.222 99.37-32.83 30.192-68.005 45.654-105.672 46.534-27.04 0-59.65-7.695-97.61-23.303-38.084-15.536-73.084-23.23-105.086-23.23-33.563 0-69.56 7.695-108.06 23.23-38.56 15.61-69.625 23.743-93.375 24.55-36.12 1.54-72.124-14.363-108.06-47.78-22.937-20.006-51.627-54.302-85.996-102.887-36.875-51.883-67.192-112.047-90.942-180.64C12.75 781.703 0 709.96 0 640.504c0-79.562 17.192-148.183 51.627-205.687 27.063-46.19 63.066-82.625 108.127-109.373s93.75-40.378 146.182-41.25c28.7 0 66.313 8.874 113.066 26.315 46.622 17.5 76.557 26.374 89.682 26.374 9.812 0 43.068-10.377 99.443-31.064 53.312-19.185 98.307-27.13 135.168-24 99.883 8.06 174.923 47.435 224.828 118.372-89.33 54.126-133.52 129.936-132.64 227.188.806 75.75 28.287 138.788 82.295 188.84 24.476 23.23 51.8 41.184 82.222 53.935-6.595 19.126-13.557 37.447-20.958 55.034zM749.964 23.75c0 59.373-21.69 114.8-64.927 166.122-52.177 61-115.287 96.248-183.724 90.686-.872-7.123-1.378-14.62-1.378-22.497 0-56.998 24.813-117.998 68.877-167.873 22-25.253 49.978-46.25 83.907-63 33.856-16.5 65.88-25.625 96-27.188.88 7.937 1.246 15.875 1.246 23.75z" fill="#fff"/></svg>