<svg xmlns="http://www.w3.org/2000/svg" viewBox="0 0 24.9 27.8"  xmlns:v="https://vecta.io/nano"><linearGradient id="A" gradientUnits="userSpaceOnUse" x1="12.762" y1="1.693" x2="-5.347" y2="19.802"><stop offset="0" stop-color="#00a0ff"/><stop offset=".007" stop-color="#00a1ff"/><stop offset=".26" stop-color="#00beff"/><stop offset=".512" stop-color="#00d2ff"/><stop offset=".76" stop-color="#00dfff"/><stop offset="1" stop-color="#00e3ff"/></linearGradient><path d="M.5.4C.2.8 0 1.3 0 1.9v23.9c0 .7.2 1.2.5 1.5l.1.1L13.9 14v-.4L.5.4z" fill="url(#A)"/><linearGradient id="B" gradientUnits="userSpaceOnUse" x1="25.747" y1="13.877" x2="-.362" y2="13.877"><stop offset="0" stop-color="#ffe000"/><stop offset=".409" stop-color="#ffbd00"/><stop offset=".775" stop-color="orange"/><stop offset="1" stop-color="#ff9c00"/></linearGradient><path d="M18.4 18.5L13.9 14v-.4l4.5-4.5.1.1 5.3 3c1.5.9 1.5 2.3 0 3.1l-5.3 3-.1.2z" fill="url(#B)"/><linearGradient id="C" gradientUnits="userSpaceOnUse" x1="16.028" y1="16.353" x2="-8.529" y2="40.91"><stop offset="0" stop-color="#ff3a44"/><stop offset="1" stop-color="#c31162"/></linearGradient><path d="M18.5 18.4l-4.6-4.6L.5 27.3c.5.5 1.3.6 2.2.1l15.8-9" fill="url(#C)"/><linearGradient id="D" gradientUnits="userSpaceOnUse" x1="-2.887" y1="-7.514" x2="8.079" y2="3.451"><stop offset="0" stop-color="#32a071"/><stop offset=".069" stop-color="#2da771"/><stop offset=".476" stop-color="#15cf74"/><stop offset=".801" stop-color="#06e775"/><stop offset="1" stop-color="#00f076"/></linearGradient><path d="M18.5 9.3L2.7.3C1.8-.2 1-.1.5.4l13.4 13.4 4.6-4.5z" fill="url(#D)"/><path d="M18.4 18.3L2.7 27.2c-.9.5-1.7.5-2.2 0h0l-.1.1.1.1c.5.5 1.3.5 2.2 0l15.8-9-.1-.1z" opacity=".2" enable-background="new"/><path d="M.5 27.2c-.3-.4-.5-.9-.5-1.5v.2c0 .7.2 1.2.5 1.5v-.2zm23.3-11.9l-5.4 3.1.1.1 5.3-3c.8-.4 1.1-1 1.1-1.6h0c0 .5-.4 1-1.1 1.4z" opacity=".12" enable-background="new"/><path d="M2.7.5l21 12c.7.4 1.1.9 1.1 1.4h0c0-.6-.4-1.1-1.1-1.6L2.7.3C1.2-.5 0 .2 0 1.9v.2C0 .4 1.2-.3 2.7.5z" opacity=".25" fill="#fff" enable-background="new"/></svg>