<svg xmlns="http://www.w3.org/2000/svg" viewBox="0 0 98.7 57.1"  xmlns:v="https://vecta.io/nano"><path d="M91 0H7.7C3.5 0 0 3.5 0 7.7v49.4l18.4-18.4H91c4.3 0 7.7-3.5 7.7-7.7V7.7C98.7 3.5 95.3 0 91 0z" fill="#f55f5c"/><g fill="#fff"><path d="M37.2 7.5H56v3.1H37.2zm21.1.1h18.3v3H58.3zM37.2 16H66v1.1H37.2zm31.9 0h16.2v1.1H69.1zm-31.9 3.8h48.1v.9H37.2zm0 3.5h48.1v.9H37.2zm0 3.5H66v1.1H37.2zm31.9 0h16.2v1.1H69.1zm-31.9 3.8h41.2v.9H37.2z"/><circle cx="18" cy="15.7" r="11.1"/></g><g fill="#f55f5c"><circle cx="18" cy="11.9" r="2.6"/><path d="M24.1 21.1c-1.8.4-3.8.6-5.9.6s-4.1-.2-5.9-.6V21c0-3.2 2.7-5.8 5.9-5.8s5.9 2.6 5.9 5.9h0z"/></g></svg>