<svg id="Layer_1" xmlns="http://www.w3.org/2000/svg" viewBox="0 0 751.4 769.1" fill="#c93"><style>.st0{fill-rule:evenodd;clip-rule:evenodd}</style><path class="st0" d="M379.9 0L0 216.2v78.1h58.2V563h634V294.4h59.3v-76L379.9 0zm239.2 494.6H135.4V224.9L379.9 81.4l239.2 143.4v269.8z"/><path class="st0" d="M249.9 261.2h252.9v66.4H249.9zM249.9 360.1h252.9v66.4H249.9zM432.1 684.5h-44.5v84.6H431c34.9 0 55-7.5 55-40.7.1-34.2-22.2-43.9-53.9-43.9zm-2.1 66.4h-19v-48.2h21.2c14.8 0 28.6 8.6 28.6 25.7-.1 19.3-12.8 22.5-30.8 22.5zM690.5 733.8c15.9-2.1 23.3-8.6 23.3-22.5 0-19.3-9.5-26.8-32.8-26.8h-61.4v84.6h23.3v-35.3h22.2l24.3 35.3h25.4l-24.3-35.3zm-13.8-18.1h-33.9v-12.8h34.9c9.5 0 13.8 1.1 13.8 6.4 0 6.4-3.2 6.4-14.8 6.4zM260 684.5v84.6h22.3v-51.4l44.4 51.4h26.5v-84.6H331V737l-44.5-52.5H260zM41.8 684.5v84.6h83.7v-18.2l-60.4-1.1v-65.3H41.8zM149.4 769.1h81.5v-18.2h-57.2v-18.2h47.7v-17.1h-47.7v-12.9h57.2v-18.2h-81.5v84.6zM512.1 684.5v84.6l80.5-1.1v-17.1h-57.2v-18.2h48.7v-17.1h-48.7v-12.9h57.2v-18.2h-80.5zM246.9 587.7h-18l-21.2 76h15.4l4.7-17.1h19.1l4.7 17.1H268l-21.1-76zM231.1 634l6.4-30 7.4 30h-13.8zM136.3 653c3.2-6.4 4.2-10.7 4.2-20.3v-16.1c0-18.2-4.2-31-25.4-31-19 0-25.4 10.7-25.4 30v20.3c0 25.7 14.8 26.8 58.2 26.8l1.1-5.4-12.7-4.3zm-11.7-17.1c0 13.9-1.1 17.1-9.5 17.1-7.4 0-9.5-4.3-9.5-18.2v-18.2c0-13.9 1.1-18.2 10.6-18.2 7.4 0 8.5 2.1 8.5 17.1v20.4zM521.5 643.4c0 11.8 7.4 21.4 24.3 21.4 13.8 0 26.5-9.6 26.5-21.4 0-18.2-33.9-26.8-33.9-38.5 0-4.3 4.2-6.4 8.5-6.4 6.4 0 9.5 4.3 12.7 10.7l10.6-4.3c-1.1-10.7-8.5-19.3-24.3-19.3-12.7 0-23.3 6.4-23.3 19.3 0 21.4 33.9 26.8 33.9 40.7 0 5.4-3.2 7.5-9.5 7.5s-10.6-4.3-12.7-11.8l-12.8 2.1zM432.2 585.6c-15.9 0-25.4 8.6-25.4 28.9v24.6c0 18.2 5.3 25.7 25.4 25.7 20.1 0 25.4-8.6 25.4-28.9v-23.6c0-19.2-5.3-26.7-25.4-26.7zm9.5 50.3c0 12.8-3.2 17.1-9.5 17.1-8.5 0-9.5-5.4-9.5-16.1v-23.5c0-9.6 1.1-16.1 9.5-16.1 8.5 0 9.5 7.5 9.5 16.1v22.5zM663 635.9c0 22.5 6.4 28.9 27.5 28.9 16.4 0 21.2-7.8 21.2-16.1v-24.6h-22.2v11.8h7.4v8.6c0 6.4-2.1 9.6-7.4 9.6-10.6 0-11.6-7.5-11.6-18.2v-17.1c0-12.8 1.1-21.4 11.6-21.4 7.4 0 11.6 5.4 12.7 12.8l10.6-4.3c-1.1-12.8-9.5-20.3-24.3-20.3-21.2 0-25.4 11.8-25.4 27.8v22.5h-.1zM464.2 587.7v43.9c0 25.7 4.4 33.9 26.6 33.9 16.9 0 23.2-9.3 23.2-31.8v-46h-14.8v43.9c0 17.1-1.1 21.4-9.5 21.4-8.5 0-9.5-6.4-9.5-22.5v-42.8h-16zM605.6 587.7v76h12.7v-51.4l18 51.4h19v-76h-12.7v47.1l-16.9-47.1h-20.1zM155.7 587.7v46c0 21.4 2.1 31 23.3 31 24.3 0 25.4-11.8 25.4-33.2v-43.9h-14.8v45c0 15-2.1 19.3-9.5 19.3-8.5 0-9.5-4.3-9.5-21.4v-42.8h-14.9zM348.2 587.7v76H363v-34.2h18v34.2h14.8v-76H381v28.9h-18v-28.9h-14.8zM40.8 587.7v76h38.1v-11.8H55.6v-21.4h21.2v-10.7H55.6v-20.3h23.3v-11.8H40.8zM274.8 587.7v76h34.9v-11.8h-22.2v-64.2h-12.7zM580.1 587.7v76h13.8v-76h-13.8z"/></svg>