<svg xmlns="http://www.w3.org/2000/svg" viewBox="0 0 720 442.6" fill="#c93"><path d="M171.3 161.2h98.4c88.7 0 145.3 54.6 145.3 139.7 0 94.3-62.7 140.2-162.7 140.2h-81.1V161.2zm92.3 64.2c-3.6 0-8.2.5-14.3.5v151c50 0 88.7-19.9 88.7-77.5.1-49.5-31.5-74-74.4-74zM720 242.7v-73.9c-19.9-8.2-37.7-12.8-62.7-12.8-82.1 0-147.9 62.2-147.9 144.3 0 82.1 64.8 142.3 146.4 142.3 29.1 0 49-6.1 64.3-17.8v-73.9c-22.9 14.3-38.8 20.4-60.2 20.4-41.3 0-73.4-30.1-73.4-74.5 0-43.3 32.6-75 73.4-75 22.4 0 38.7 7.6 60.1 20.9zM0 105.1v13.3h54.6v-13.3c-15.8-.5-18.4-2.6-18.4-13.3V25l32.6 93.3h13.8L117.8 25v65.3c0 13.8 0 13.8-19.4 14.8v13.3h63.2v-13.3c-18.4 0-18.9-2-18.9-11.7V28c0-10.7 1.5-14.3 18.9-14.3V0h-54.1L80.1 75 54.6 0H0v13.8c15.3 0 17.8 0 17.8 13.3v62.7c0 12.2 0 15.3-17.8 15.3zM264.6 105.1v13.3h50.5v-13.3c-12.2-.5-12.2-2-12.2-18.9V71.9c0-13.8 6.1-25 18.9-25 10.2 0 13.3 6.6 13.3 15.8v30.1c0 10.2-.5 12.2-12.7 12.2v13.3h45.4V105c-10.7 0-11.7-1-11.7-11.2V72.9c0-14.3 6.6-26.5 19.9-26.5 10.2 0 12.2 6.1 12.2 18.4v30.6c0 8.7 0 9.7-12.2 9.7v13.3h50v-13.3c-15.3 0-16.3.5-16.3-8.2V62.7c0-19.4-4.6-30.6-24.5-30.6-11.7 0-19.4 4.6-29.1 14.8-5.1-9.2-12.2-15.3-24.5-15.3-12.7 0-21.4 6.6-28.6 16.3V34.2h-38.2v12.2c15.3 0 16.8.5 16.8 12.7v28c-.2 18-.2 18-17 18zM2.4 161.2v280h77.1l.5-107.1h74.9v-64.8H80.5L80 226h80.5v-64.8zM431.9 0h35.7v43.3c9.7-8.2 15.8-11.2 25.5-11.2 20.4 0 34.2 18.4 34.2 43.9 0 27.5-13.8 45.4-37.2 45.4-11.2 0-18.4-3.6-26-11.7l-7.1 9.7h-10.7V27.6c0-13.8-1-15.3-14.3-15.3V0zm71.4 76c0-19.4-7.1-29.1-17.3-29.1-13.3 0-18.9 10.7-18.9 30.6 0 17.3 6.6 29.1 18.4 29.1 9.6 0 17.8-9.2 17.8-30.6zM635.8 105.1v13.3h55.1v-13.3c-15.3 0-16.8.5-16.8-11.7V75c0-16.8 5.6-32.1 20.9-32.1 1 0 2 0 5.1 1-5.1 2.5-8.7 6.1-8.7 11.7 0 6.6 5.1 11.2 11.7 11.2 8.2 0 13.8-6.1 13.8-15.3 0-11.2-8.2-19.4-19.4-19.4-9.2 0-15.8 4.6-24 13.8V34.2h-37.7v12.2c13.3 0 16.8 0 16.8 11.2v34.7c.1 11.7.1 12.8-16.8 12.8zM566.5 78.6c0 16.3 7.6 27.5 21.4 27.5 12.2 0 17.8-7.1 19.9-18.4h15.3c-2.5 21.4-16.8 33.1-37.2 33.1-24.5 0-42.8-14.8-42.8-43.3 0-26 16.3-45.4 40.8-45.4 24 0 39.3 18.4 39.3 46.4h-56.7zm17.3-33.2c-10.2 0-16.3 7.1-16.3 19.9h32.1c0-13.3-5.1-19.9-15.8-19.9zM195.2 78.6c0 16.3 8.2 27.5 21.9 27.5 12.2 0 17.8-7.1 19.9-18.4h14.8c-2.5 21.4-16.3 33.1-36.7 33.1-24.5 0-43.3-14.8-43.3-43.3 0-26 16.8-45.4 41.3-45.4 24 0 38.8 18.4 38.8 46.4h-56.7zm17.9-33.2c-10.2 0-16.3 7.1-16.3 19.9h31.6c0-13.8-5.1-19.9-15.3-19.9zM423.2 161.2h77v280h-77z"/></svg>